<?xml version="1.0" encoding="UTF-8"?>
<svg id="Layer_1" data-name="Layer 1" xmlns="http://www.w3.org/2000/svg" viewBox="0 0 521.39 246.08">
  <defs>
    <style>
      .cls-1 {
        fill: #231f20;
      }

      .cls-2 {
        fill: #c1c3c1;
      }

      .cls-3 {
        fill: #fff;
      }

      .cls-4 {
        font-family: TimesNewRomanPSMT, 'Times New Roman';
        font-size: 38.82px;
        letter-spacing: .2em;
      }
    </style>
  </defs>
  <path class="cls-2" d="M399.97,190.41c-43.68,0-79.21-35.54-79.21-79.21s35.53-79.21,79.21-79.21,79.21,35.53,79.21,79.21-35.53,79.21-79.21,79.21ZM399.97,38.46c-40.11,0-72.74,32.63-72.74,72.74s32.63,72.74,72.74,72.74,72.74-32.63,72.74-72.74-32.63-72.74-72.74-72.74Z"/>
  <path class="cls-2" d="M400.58,177.47c-36.21,0-65.67-29.46-65.67-65.67s29.46-65.66,65.67-65.66,65.67,29.45,65.67,65.66-29.46,65.67-65.67,65.67ZM400.58,48.57c-34.87,0-63.24,28.37-63.24,63.24s28.37,63.24,63.24,63.24,63.24-28.37,63.24-63.24-28.37-63.24-63.24-63.24Z"/>
  <text class="cls-4" transform="translate(42.21 128.13)"><tspan x="0" y="0">PENPRINTING</tspan></text>
  <path class="cls-1" d="M320.28,212.25c-11.52,0-24.77-4.36-38.58-8.9-23.26-7.65-47.31-15.56-66.07-3.83l-1.29-2.06c19.72-12.33,44.32-4.24,68.11,3.59,18.32,6.02,35.61,11.72,48.58,7.08,28.88-10.31,25.23-33.91,24.57-34.09l2.29-1.56c.05.27,4.77,26.93-26.04,37.94-3.6,1.29-7.48,1.84-11.57,1.84Z"/>
  <polygon class="cls-3" points="387.16 128.07 399.47 137.17 406.96 132.62 444.95 70.82 467.42 46.21 467.42 40.32 463.14 37.65 458.32 37.65 440.67 66.54 389.84 119.81 387.16 128.07"/>
  <path class="cls-1" d="M399.4,138.34l-13.65-10.09,3.03-9.35,50.93-53.37,17.94-29.35h5.83l5.14,3.21v7.02l-22.71,24.87-38.08,61.95-8.43,5.11ZM388.58,127.35l10.96,8.1,6.56-3.97,37.89-61.65.08-.08,22.15-24.27v-4.75l-3.42-2.14h-3.79l-17.37,28.43-.09.09-50.64,53.07-2.32,7.18Z"/>
  <polygon class="cls-3" points="382.21 127.78 399.19 137.41 390.7 143.3 377.97 135.54 382.21 127.78"/>
  <path class="cls-1" d="M390.58,145.84l-13.72-10.45,6.49-9.4,18.86,13.46-11.64,6.39ZM380.77,135.05l10.01,7.61,6.47-3.55-12.92-9.22-3.56,5.16Z"/>
  <polygon class="cls-3" points="385.52 145.98 377.5 139.56 366.26 143.3 357.61 171.58 385.52 156.41 385.52 145.98"/>
  <path class="cls-1" d="M355.6,174.03l9.69-31.68,12.45-4.15,8.99,7.19v11.73l-31.13,16.91ZM367.23,144.24l-7.61,24.87,24.69-13.42v-9.14l-7.06-5.65-10.02,3.34Z"/>
  <path class="cls-1" d="M375.23,157.61c-3.09,0-5.6-2.52-5.6-5.62s2.51-5.62,5.6-5.62,5.61,2.53,5.61,5.62-2.51,5.62-5.61,5.62M375.23,148.79c-1.76,0-3.2,1.43-3.2,3.21s1.44,3.21,3.2,3.21,3.2-1.44,3.2-3.21-1.44-3.21-3.2-3.21"/>
  <rect x="353.78" y="161.94" width="22.36" height="2.41" transform="translate(2.04 330.78) rotate(-48.88)"/>
</svg>